<svg width="41" height="40" viewBox="0 0 41 40" fill="none" xmlns="http://www.w3.org/2000/svg">
<path d="M7.16797 19.9993C7.16797 13.7139 7.16797 10.5713 9.12059 8.61863C11.0732 6.66602 14.2159 6.66602 20.5013 6.66602C26.7866 6.66602 29.9295 6.66602 31.882 8.61863C33.8346 10.5713 33.8346 13.7139 33.8346 19.9993C33.8346 26.2847 33.8346 29.4275 31.882 31.38C29.9295 33.3327 26.7866 33.3327 20.5013 33.3327C14.2159 33.3327 11.0732 33.3327 9.12059 31.38C7.16797 29.4275 7.16797 26.2847 7.16797 19.9993Z" stroke="#CEF17B" stroke-width="2.5" stroke-linejoin="round"/>
<path d="M13 25L16.0698 15.7906C16.2272 15.3185 16.669 15 17.1667 15C17.6643 15 18.1062 15.3185 18.2635 15.7906L21.3333 25M14.6667 21.6667H19.6667" stroke="#CEF17B" stroke-width="2.5" stroke-linecap="round" stroke-linejoin="round"/>
<path d="M26.332 15V25" stroke="#CEF17B" stroke-width="2.5" stroke-linecap="round" stroke-linejoin="round"/>
<path d="M13.832 3.33398V6.66732M27.1654 3.33398V6.66732M20.4987 3.33398V6.66732M13.832 33.334V36.6673M20.4987 33.334V36.6673M27.1654 33.334V36.6673M37.1654 26.6673H33.832M7.16536 13.334H3.83203M7.16536 26.6673H3.83203M7.16536 20.0007H3.83203M37.1654 13.334H33.832M37.1654 20.0007H33.832" stroke="#CEF17B" stroke-width="2.5" stroke-linecap="round" stroke-linejoin="round"/>
</svg>
