<svg width="356" height="314" viewBox="0 0 356 314" fill="none" xmlns="http://www.w3.org/2000/svg">
<path d="M356.287 185.797C356.287 287.865 276.681 370.607 178.481 370.607C80.2821 370.607 0.675781 287.865 0.675781 185.797C0.675781 83.7302 80.2821 0.988281 178.481 0.988281C276.681 0.988281 356.287 83.7302 356.287 185.797Z" fill="white" fill-opacity="0.4"/>
<path d="M2139.93 324.303C2125.14 324.303 2111.9 321.924 2100.21 317.166C2088.76 312.17 2078.97 305.389 2070.86 296.825C2062.99 288.261 2056.91 278.031 2052.61 266.136C2048.56 254.241 2046.53 241.156 2046.53 226.882C2046.53 212.846 2048.56 199.88 2052.61 187.985C2056.91 176.09 2062.99 165.86 2070.86 157.295C2078.97 148.731 2088.76 142.07 2100.21 137.312C2111.9 132.316 2125.14 129.818 2139.93 129.818C2154.72 129.818 2167.84 132.316 2179.29 137.312C2190.98 142.07 2200.76 148.731 2208.63 157.295C2216.75 165.86 2222.83 176.09 2226.88 187.985C2231.18 199.88 2233.33 212.846 2233.33 226.882C2233.33 241.156 2231.18 254.241 2226.88 266.136C2222.83 278.031 2216.75 288.261 2208.63 296.825C2200.76 305.389 2190.98 312.17 2179.29 317.166C2167.84 321.924 2154.72 324.303 2139.93 324.303ZM2139.93 292.186C2148.99 292.186 2156.87 290.283 2163.55 286.476C2170.23 282.67 2175.71 277.674 2180.01 271.488C2184.3 265.303 2187.4 258.404 2189.31 250.791C2191.46 242.94 2192.53 234.97 2192.53 226.882C2192.53 219.031 2191.46 211.18 2189.31 203.329C2187.4 195.479 2184.3 188.58 2180.01 182.632C2175.71 176.447 2170.23 171.451 2163.55 167.644C2156.87 163.838 2148.99 161.935 2139.93 161.935C2130.86 161.935 2122.99 163.838 2116.31 167.644C2109.63 171.451 2104.14 176.447 2099.85 182.632C2095.55 188.58 2092.33 195.479 2090.19 203.329C2088.28 211.18 2087.32 219.031 2087.32 226.882C2087.32 234.97 2088.28 242.94 2090.19 250.791C2092.33 258.404 2095.55 265.303 2099.85 271.488C2104.14 277.674 2109.63 282.67 2116.31 286.476C2122.99 290.283 2130.86 292.186 2139.93 292.186Z" fill="white" fill-opacity="0.4"/>
<path d="M1969.88 64.5137H2010.67V103.054H1969.88V64.5137ZM1969.88 134.814H2010.67V319.307H1969.88V134.814Z" fill="white" fill-opacity="0.4"/>
<path d="M1924.31 319.307H1885.66V294.327H1884.95C1879.46 305.033 1871.47 312.764 1860.97 317.522C1850.48 322.043 1839.38 324.303 1827.69 324.303C1813.14 324.303 1800.38 321.805 1789.4 316.809C1778.67 311.575 1769.72 304.557 1762.57 295.754C1755.41 286.952 1750.04 276.603 1746.46 264.708C1742.88 252.575 1741.1 239.61 1741.1 225.811C1741.1 209.158 1743.36 194.765 1747.89 182.632C1752.43 170.499 1758.39 160.507 1765.79 152.656C1773.42 144.806 1782.01 139.096 1791.55 135.527C1801.33 131.721 1811.23 129.818 1821.25 129.818C1826.98 129.818 1832.82 130.413 1838.79 131.602C1844.75 132.554 1850.48 134.219 1855.96 136.598C1861.45 138.977 1866.46 142.07 1870.99 145.876C1875.76 149.445 1879.7 153.727 1882.8 158.723H1883.52V64.5137H1924.31V319.307ZM1781.89 229.023C1781.89 236.874 1782.84 244.605 1784.75 252.218C1786.9 259.831 1790 266.611 1794.06 272.559C1798.35 278.507 1803.72 283.265 1810.16 286.833C1816.6 290.402 1824.23 292.186 1833.06 292.186C1842.13 292.186 1849.88 290.283 1856.32 286.476C1863 282.67 1868.37 277.674 1872.42 271.488C1876.72 265.303 1879.82 258.404 1881.73 250.791C1883.88 242.94 1884.95 234.97 1884.95 226.882C1884.95 206.422 1880.3 190.483 1870.99 179.064C1861.93 167.644 1849.52 161.935 1833.78 161.935C1824.23 161.935 1816.12 163.957 1809.44 168.001C1803 171.807 1797.64 176.922 1793.34 183.346C1789.29 189.531 1786.3 196.668 1784.39 204.757C1782.72 212.608 1781.89 220.696 1781.89 229.023Z" fill="white" fill-opacity="0.4"/>
<path d="M1707.02 319.307H1666.94V293.613H1666.23C1661.22 302.892 1653.7 310.385 1643.68 316.095C1633.9 321.567 1623.88 324.303 1613.62 324.303C1589.29 324.303 1571.64 318.355 1560.66 306.46C1549.93 294.327 1544.56 276.128 1544.56 251.862V134.814H1585.35V247.936C1585.35 264.113 1588.46 275.533 1594.66 282.194C1600.86 288.855 1609.57 292.186 1620.78 292.186C1629.37 292.186 1636.53 290.877 1642.25 288.261C1647.98 285.644 1652.63 282.194 1656.21 277.912C1659.79 273.392 1662.29 268.039 1663.72 261.853C1665.39 255.668 1666.23 249.007 1666.23 241.87V134.814H1707.02V319.307Z" fill="white" fill-opacity="0.4"/>
<path d="M1406.79 134.814H1437.56V79.5015H1478.36V134.814H1515.21V165.146H1478.36V263.638C1478.36 267.92 1478.48 271.607 1478.71 274.7C1479.19 277.793 1480.03 280.41 1481.22 282.551C1482.65 284.692 1484.68 286.357 1487.3 287.547C1489.93 288.498 1493.51 288.974 1498.04 288.974C1500.9 288.974 1503.76 288.974 1506.63 288.974C1509.49 288.736 1512.35 288.261 1515.21 287.547V318.95C1510.68 319.426 1506.27 319.901 1501.97 320.377C1497.68 320.853 1493.27 321.091 1488.73 321.091C1478 321.091 1469.29 320.139 1462.61 318.236C1456.17 316.095 1451.04 313.121 1447.22 309.315C1443.65 305.271 1441.14 300.275 1439.71 294.327C1438.52 288.379 1437.8 281.599 1437.56 273.986V165.146H1406.79V134.814Z" fill="white" fill-opacity="0.4"/>
<path d="M1228.42 234.376C1228.42 244.13 1230.09 252.456 1233.43 259.355C1236.77 266.255 1241.43 271.964 1247.39 276.484C1253.35 280.767 1260.15 283.978 1267.79 286.119C1275.66 288.023 1284.13 288.974 1293.19 288.974C1302.97 288.974 1311.32 287.904 1318.24 285.763C1325.16 283.384 1330.77 280.41 1335.06 276.841C1339.36 273.273 1342.46 269.228 1344.37 264.708C1346.27 259.95 1347.23 255.192 1347.23 250.434C1347.23 240.68 1344.96 233.543 1340.43 229.023C1336.14 224.265 1331.36 220.934 1326.12 219.031C1317.05 215.7 1306.43 212.608 1294.27 209.753C1282.34 206.66 1267.55 202.735 1249.89 197.977C1238.92 195.122 1229.74 191.434 1222.34 186.914C1215.18 182.156 1209.46 176.922 1205.16 171.213C1200.87 165.503 1197.77 159.437 1195.86 153.013C1194.19 146.59 1193.35 140.048 1193.35 133.386C1193.35 120.54 1195.98 109.477 1201.23 100.199C1206.71 90.6829 1213.87 82.8321 1222.7 76.6467C1231.53 70.4612 1241.54 65.9411 1252.76 63.0862C1263.97 59.9935 1275.3 58.4472 1286.75 58.4472C1300.11 58.4472 1312.64 60.2314 1324.33 63.7999C1336.25 67.1306 1346.63 72.2455 1355.46 79.1446C1364.52 86.0438 1371.68 94.6083 1376.93 104.838C1382.18 114.83 1384.8 126.487 1384.8 139.81H1340.07C1338.88 123.394 1333.27 111.856 1323.25 105.195C1313.23 98.2958 1300.47 94.8462 1284.96 94.8462C1279.71 94.8462 1274.35 95.4409 1268.86 96.6304C1263.37 97.5821 1258.36 99.3663 1253.83 101.983C1249.3 104.362 1245.48 107.693 1242.38 111.975C1239.52 116.257 1238.09 121.61 1238.09 128.034C1238.09 137.074 1240.83 144.211 1246.32 149.445C1252.04 154.441 1259.44 158.247 1268.5 160.864C1269.46 161.102 1273.15 162.172 1279.6 164.076C1286.28 165.741 1293.67 167.644 1301.78 169.785C1309.89 171.926 1317.77 174.068 1325.4 176.209C1333.27 178.112 1338.88 179.539 1342.22 180.491C1350.57 183.108 1357.84 186.676 1364.05 191.197C1370.25 195.717 1375.38 200.95 1379.43 206.898C1383.73 212.608 1386.83 218.793 1388.74 225.454C1390.89 232.116 1391.96 238.777 1391.96 245.438C1391.96 259.712 1388.98 271.964 1383.01 282.194C1377.29 292.186 1369.65 300.394 1360.11 306.817C1350.57 313.24 1339.71 317.879 1327.55 320.734C1315.38 323.827 1302.97 325.373 1290.33 325.373C1275.78 325.373 1262.06 323.589 1249.18 320.02C1236.3 316.452 1225.08 310.98 1215.54 303.605C1206 296.23 1198.36 286.833 1192.64 275.414C1186.91 263.757 1183.93 250.077 1183.69 234.376H1228.42Z" fill="white" fill-opacity="0.4"/>
<path d="M1047.88 64.5137H1088.67V319.307H1047.88V64.5137Z" fill="white" fill-opacity="0.4"/>
<path d="M906.688 134.814H944.977V170.499H945.693C946.886 165.503 949.152 160.626 952.492 155.868C956.07 151.11 960.245 146.828 965.016 143.021C970.026 138.977 975.513 135.765 981.477 133.386C987.441 131.007 993.525 129.818 999.727 129.818C1004.5 129.818 1007.72 129.937 1009.39 130.175C1011.3 130.413 1013.21 130.65 1015.11 130.888V170.142C1012.25 169.666 1009.27 169.309 1006.17 169.072C1003.31 168.596 1000.44 168.358 997.58 168.358C990.662 168.358 984.101 169.785 977.899 172.64C971.935 175.257 966.686 179.301 962.154 184.773C957.621 190.007 954.043 196.549 951.418 204.4C948.794 212.251 947.482 221.291 947.482 231.521V319.307H906.688V134.814Z" fill="white" fill-opacity="0.4"/>
<path d="M754.601 134.814H785.375V79.5015H826.17V134.814H863.028V165.146H826.17V263.638C826.17 267.92 826.289 271.607 826.528 274.7C827.005 277.793 827.84 280.41 829.033 282.551C830.464 284.692 832.492 286.357 835.116 287.547C837.74 288.498 841.319 288.974 845.851 288.974C848.714 288.974 851.577 288.974 854.44 288.974C857.302 288.736 860.165 288.261 863.028 287.547V318.95C858.495 319.426 854.082 319.901 849.788 320.377C845.493 320.853 841.08 321.091 836.547 321.091C825.812 321.091 817.104 320.139 810.425 318.236C803.983 316.095 798.854 313.121 795.037 309.315C791.459 305.271 788.954 300.275 787.522 294.327C786.33 288.379 785.614 281.599 785.375 273.986V165.146H754.601V134.814Z" fill="white" fill-opacity="0.4"/>
<path d="M678.852 145.519C676.944 138.144 674.32 131.364 670.98 125.179C667.64 118.993 663.346 113.64 658.097 109.12C652.849 104.6 646.646 101.151 639.489 98.7715C632.571 96.1546 624.46 94.8462 615.156 94.8462C601.558 94.8462 589.749 97.582 579.729 103.054C569.948 108.526 561.956 115.9 555.754 125.179C549.551 134.219 544.899 144.568 541.798 156.225C538.935 167.882 537.504 179.777 537.504 191.91C537.504 204.043 538.935 215.938 541.798 227.596C544.899 239.253 549.551 249.72 555.754 258.999C561.956 268.039 569.948 275.295 579.729 280.767C589.749 286.238 601.558 288.974 615.156 288.974C625.176 288.974 634.002 287.309 641.636 283.978C649.27 280.41 655.831 275.652 661.318 269.704C666.805 263.519 671.099 256.382 674.2 248.293C677.302 240.204 679.329 231.521 680.284 222.243H723.941C722.987 237.468 719.647 251.386 713.921 263.995C708.434 276.603 700.919 287.547 691.377 296.825C681.834 305.865 670.622 312.883 657.739 317.879C644.857 322.875 630.662 325.373 615.156 325.373C596.071 325.373 578.894 321.924 563.626 315.025C548.597 307.887 535.833 298.252 525.337 286.119C514.84 273.986 506.729 259.831 501.003 243.654C495.516 227.477 492.773 210.229 492.773 191.91C492.773 173.83 495.516 156.701 501.003 140.523C506.729 124.346 514.84 110.191 525.337 98.0579C535.833 85.9249 548.597 76.2898 563.626 69.1527C578.894 62.0157 596.071 58.4472 615.156 58.4472C629.47 58.4472 642.949 60.4693 655.592 64.5137C668.236 68.3201 679.329 74.0297 688.872 81.6426C698.653 89.0176 706.526 98.0578 712.49 108.763C718.454 119.469 722.152 131.721 723.583 145.519H678.852Z" fill="white" fill-opacity="0.4"/>
<path d="M254.295 71.4919H101.89C83.0667 71.4919 67.8072 87.2672 67.8072 106.727V264.283C67.8072 283.743 83.0667 299.518 101.89 299.518H254.295C273.119 299.518 288.378 283.743 288.378 264.283V106.727C288.378 87.2672 273.119 71.4919 254.295 71.4919Z" fill="black"/>
<path d="M178.09 299.512C238.997 299.512 288.372 248.468 288.372 185.502C288.372 122.536 238.997 71.4919 178.09 71.4919C117.182 71.4919 67.8072 122.536 67.8072 185.502C67.8072 248.468 117.182 299.512 178.09 299.512Z" fill="white" fill-opacity="0.4"/>
</svg>
