<svg width="87" height="87" viewBox="0 0 87 87" fill="none" xmlns="http://www.w3.org/2000/svg">
<mask id="mask0_316_99455" style="mask-type:luminance" maskUnits="userSpaceOnUse" x="0" y="0" width="87" height="87">
<path d="M87 0H0V87H87V0Z" fill="white"/>
</mask>
<g mask="url(#mask0_316_99455)">
<path d="M87.0368 43.6835C87.0368 67.3003 67.8056 86.4454 44.083 86.4454C20.3601 86.4454 1.12891 67.3003 1.12891 43.6835C1.12891 20.0669 20.3601 0.921875 44.083 0.921875C67.8056 0.921875 87.0368 20.0669 87.0368 43.6835Z" fill="#141414"/>
<path d="M62.3992 17.2344H25.5814C21.034 17.2344 17.3477 20.8845 17.3477 25.3871V61.8432C17.3477 66.3458 21.034 69.9958 25.5814 69.9958H62.3992C66.9463 69.9958 70.6328 66.3458 70.6328 61.8432V25.3871C70.6328 20.8845 66.9463 17.2344 62.3992 17.2344Z" fill="#CEF17B"/>
<path d="M43.9896 69.9943C58.7036 69.9943 70.6313 58.1837 70.6313 43.6145C70.6313 29.0451 58.7036 17.2344 43.9896 17.2344C29.2756 17.2344 17.3477 29.0451 17.3477 43.6145C17.3477 58.1837 29.2756 69.9943 43.9896 69.9943Z" fill="#141414"/>
</g>
</svg>
