<svg width="38" height="36" viewBox="0 0 38 36" fill="none" xmlns="http://www.w3.org/2000/svg">
<path d="M6.77962 1.54444C7.00252 1.15623 7.416 0.916845 7.86365 0.916845H30.1364C30.584 0.916845 30.9975 1.15623 31.2204 1.54444L37.584 12.6278C37.8466 13.0851 37.7939 13.6581 37.4523 14.0599L19.9523 34.6432C19.7148 34.9225 19.3667 35.0835 19 35.0835C18.6334 35.0835 18.2852 34.9225 18.0477 34.6432L0.547682 14.0599C0.206085 13.6581 0.153395 13.0851 0.415987 12.6278L6.77962 1.54444ZM8.58733 3.41684L3.02175 13.1102L19 31.9037L34.9783 13.1102L29.4127 3.41684H8.58733Z" fill="#CEF17B"/>
<path d="M7.44895 0.987639C8.10021 0.758608 8.81382 1.10089 9.04285 1.75215L19 30.0657L28.9572 1.75215C29.1862 1.10089 29.8998 0.758608 30.5511 0.987639C31.2023 1.21667 31.5446 1.93028 31.3156 2.58154L20.1792 34.2482C20.0032 34.7487 19.5305 35.0835 19 35.0835C18.4695 35.0835 17.9968 34.7487 17.8208 34.2482L6.68444 2.58154C6.45541 1.93028 6.79769 1.21667 7.44895 0.987639Z" fill="#CEF17B"/>
<path d="M0.250011 13.2502C0.250011 12.5598 0.809655 12.0002 1.50001 12.0002H36.5C37.1904 12.0002 37.75 12.5598 37.75 13.2502C37.75 13.9405 37.1904 14.5002 36.5 14.5002H1.50001C0.809655 14.5002 0.250011 13.9405 0.250011 13.2502Z" fill="#CEF17B"/>
<path d="M19 0.916845C19.4244 0.916845 19.8198 1.13215 20.05 1.48861L27.2091 12.5719C27.5837 13.1518 27.4172 13.9256 26.8373 14.3002C26.2574 14.6748 25.4837 14.5083 25.1091 13.9284L19 4.47063L12.8909 13.9284C12.5163 14.5083 11.7426 14.6748 11.1627 14.3002C10.5828 13.9256 10.4163 13.1518 10.7909 12.5719L17.95 1.48861C18.1803 1.13215 18.5756 0.916845 19 0.916845Z" fill="#CEF17B"/>
</svg>
