<svg width="863" height="588" viewBox="0 0 863 588" fill="none" xmlns="http://www.w3.org/2000/svg">
<path d="M863.697 449.436C863.697 697.275 670.43 898.188 432.024 898.188C193.618 898.188 0.351562 697.275 0.351562 449.436C0.351562 201.597 193.618 0.683594 432.024 0.683594C670.43 0.683594 863.697 201.597 863.697 449.436Z" fill="white" fill-opacity="0.4"/>
<path d="M5193.98 785.753C5158.07 785.753 5125.93 779.976 5097.55 768.423C5069.75 756.292 5046 739.828 5026.31 719.032C5007.19 698.236 4992.43 673.396 4982 644.512C4972.15 615.629 4967.23 583.857 4967.23 549.196C4967.23 515.114 4972.15 483.631 4982 454.747C4992.43 425.863 5007.19 401.024 5026.31 380.227C5046 359.431 5069.75 343.256 5097.55 331.703C5125.93 319.572 5158.07 313.506 5193.98 313.506C5229.89 313.506 5261.74 319.572 5289.54 331.703C5317.92 343.256 5341.67 359.431 5360.78 380.227C5380.48 401.024 5395.24 425.863 5405.09 454.747C5415.52 483.631 5420.73 515.114 5420.73 549.196C5420.73 583.857 5415.52 615.629 5405.09 644.512C5395.24 673.396 5380.48 698.236 5360.78 719.032C5341.67 739.828 5317.92 756.292 5289.54 768.423C5261.74 779.976 5229.89 785.753 5193.98 785.753ZM5193.98 707.767C5215.99 707.767 5235.1 703.146 5251.32 693.903C5267.54 684.66 5280.86 672.529 5291.28 657.51C5301.71 642.49 5309.24 625.738 5313.87 607.252C5319.08 588.189 5321.69 568.837 5321.69 549.196C5321.69 530.133 5319.08 511.07 5313.87 492.007C5309.24 472.944 5301.71 456.191 5291.28 441.749C5280.86 426.73 5267.54 414.599 5251.32 405.356C5235.1 396.113 5215.99 391.492 5193.98 391.492C5171.97 391.492 5152.86 396.113 5136.64 405.356C5120.42 414.599 5107.1 426.73 5096.68 441.749C5086.25 456.191 5078.43 472.944 5073.22 492.007C5068.59 511.07 5066.27 530.133 5066.27 549.196C5066.27 568.837 5068.59 588.189 5073.22 607.252C5078.43 625.738 5086.25 642.49 5096.68 657.51C5107.1 672.529 5120.42 684.66 5136.64 693.903C5152.86 703.146 5171.97 707.767 5193.98 707.767Z" fill="white" fill-opacity="0.4"/>
<path d="M4781.13 154.935H4880.17V248.518H4781.13V154.935ZM4781.13 325.637H4880.17V773.622H4781.13V325.637Z" fill="white" fill-opacity="0.4"/>
<path d="M4670.51 773.622H4576.69V712.966H4574.95C4561.63 738.962 4542.23 757.736 4516.74 769.289C4491.26 780.265 4464.33 785.753 4435.95 785.753C4400.62 785.753 4369.63 779.687 4342.99 767.556C4316.92 754.847 4295.21 737.806 4277.83 716.432C4260.45 695.059 4247.42 669.93 4238.74 641.046C4230.05 611.585 4225.7 580.102 4225.7 546.597C4225.7 506.16 4231.21 471.211 4242.21 441.749C4253.21 412.288 4267.69 388.026 4285.65 368.963C4304.18 349.9 4325.03 336.035 4348.2 327.37C4371.95 318.128 4395.98 313.506 4420.31 313.506C4434.21 313.506 4448.4 314.951 4462.88 317.839C4477.36 320.15 4491.26 324.193 4504.58 329.97C4517.9 335.747 4530.06 343.256 4541.07 352.499C4552.65 361.164 4562.21 371.562 4569.74 383.693H4571.47V154.935H4670.51V773.622ZM4324.74 554.395C4324.74 573.459 4327.06 592.233 4331.69 610.718C4336.91 629.204 4344.44 645.667 4354.28 660.109C4364.71 674.551 4377.74 686.105 4393.38 694.77C4409.01 703.435 4427.55 707.767 4448.98 707.767C4470.99 707.767 4489.81 703.146 4505.45 693.903C4521.66 684.66 4534.7 672.529 4544.54 657.51C4554.97 642.49 4562.5 625.738 4567.13 607.252C4572.34 588.189 4574.95 568.837 4574.95 549.196C4574.95 499.517 4563.65 460.813 4541.07 433.084C4519.06 405.356 4488.94 391.492 4450.71 391.492C4427.55 391.492 4407.86 396.402 4391.64 406.223C4376 415.465 4362.97 427.885 4352.54 443.482C4342.7 458.502 4335.46 475.832 4330.82 495.473C4326.77 514.536 4324.74 534.177 4324.74 554.395Z" fill="white" fill-opacity="0.4"/>
<path d="M4142.98 773.622H4045.68V711.233H4043.94C4031.78 733.763 4013.53 751.959 3989.21 765.823C3965.46 779.11 3941.14 785.753 3916.23 785.753C3857.16 785.753 3814.3 771.311 3787.65 742.428C3761.59 712.966 3748.56 668.774 3748.56 609.852V325.637H3847.6V600.32C3847.6 639.602 3855.13 667.33 3870.19 683.505C3885.25 699.68 3906.39 707.767 3933.61 707.767C3954.46 707.767 3971.83 704.59 3985.73 698.236C3999.63 691.881 4010.93 683.505 4019.62 673.107C4028.3 662.131 4034.38 649.134 4037.86 634.114C4041.91 619.095 4043.94 602.92 4043.94 585.59V325.637H4142.98V773.622Z" fill="white" fill-opacity="0.4"/>
<path d="M3414.08 325.637H3488.79V191.329H3587.83V325.637H3677.31V399.291H3587.83V638.447C3587.83 648.845 3588.12 657.799 3588.7 665.308C3589.86 672.818 3591.89 679.173 3594.78 684.372C3598.26 689.571 3603.18 693.614 3609.55 696.503C3615.92 698.813 3624.61 699.969 3635.61 699.969C3642.56 699.969 3649.51 699.969 3656.46 699.969C3663.41 699.391 3670.36 698.236 3677.31 696.503V772.755C3666.31 773.911 3655.59 775.066 3645.17 776.221C3634.74 777.377 3624.03 777.954 3613.03 777.954C3586.96 777.954 3565.82 775.644 3549.61 771.022C3533.97 765.823 3521.52 758.602 3512.25 749.36C3503.56 739.539 3497.48 727.408 3494 712.966C3491.11 698.525 3489.37 682.061 3488.79 663.575V399.291H3414.08V325.637Z" fill="white" fill-opacity="0.4"/>
<path d="M2981.05 567.393C2981.05 591.078 2985.11 611.296 2993.21 628.049C3001.32 644.801 3012.62 658.665 3027.1 669.641C3041.57 680.039 3058.08 687.838 3076.62 693.037C3095.73 697.658 3116.29 699.969 3138.3 699.969C3162.04 699.969 3182.32 697.369 3199.11 692.17C3215.91 686.393 3229.52 679.172 3239.94 670.507C3250.37 661.842 3257.9 652.022 3262.53 641.046C3267.17 629.493 3269.48 617.939 3269.48 606.386C3269.48 582.701 3263.98 565.371 3252.98 554.395C3242.55 542.842 3230.97 534.755 3218.22 530.133C3196.22 522.046 3170.44 514.536 3140.9 507.604C3111.95 500.094 3076.04 490.563 3033.18 479.009C3006.53 472.077 2984.24 463.123 2966.28 452.147C2948.91 440.594 2935.01 427.885 2924.58 414.021C2914.16 400.157 2906.63 385.426 2901.99 369.829C2897.94 354.232 2895.91 338.346 2895.91 322.171C2895.91 290.977 2902.28 264.115 2915.02 241.586C2928.35 218.479 2945.72 199.416 2967.15 184.397C2988.58 169.377 3012.91 158.401 3040.13 151.469C3067.35 143.96 3094.86 140.205 3122.66 140.205C3155.09 140.205 3185.5 144.537 3213.88 153.202C3242.84 161.29 3268.03 173.71 3289.46 190.462C3311.47 207.215 3328.85 228.011 3341.59 252.851C3354.33 277.113 3360.7 305.419 3360.7 337.768H3252.11C3249.21 297.909 3235.6 269.892 3211.27 253.717C3186.95 236.965 3155.96 228.589 3118.32 228.589C3105.57 228.589 3092.54 230.033 3079.22 232.921C3065.9 235.232 3053.74 239.564 3042.73 245.919C3031.73 251.695 3022.46 259.783 3014.93 270.181C3007.98 280.579 3004.51 293.577 3004.51 309.174C3004.51 331.125 3011.17 348.455 3024.49 361.164C3038.39 373.295 3056.34 382.538 3078.35 388.892C3080.67 389.47 3089.65 392.07 3105.28 396.691C3121.5 400.735 3139.46 405.356 3159.15 410.555C3178.84 415.754 3197.95 420.953 3216.49 426.152C3235.6 430.774 3249.21 434.24 3257.32 436.55C3277.59 442.905 3295.26 451.57 3310.31 462.546C3325.37 473.521 3337.83 486.23 3347.67 500.672C3358.1 514.536 3365.63 529.556 3370.26 545.73C3375.47 561.905 3378.08 578.08 3378.08 594.255C3378.08 628.915 3370.84 658.665 3356.36 683.505C3342.46 707.767 3323.92 727.697 3300.76 743.294C3277.59 758.891 3251.24 770.156 3221.7 777.088C3192.16 784.598 3162.04 788.353 3131.35 788.353C3096.02 788.353 3062.72 784.02 3031.44 775.355C3000.16 766.69 2972.94 753.403 2949.78 735.495C2926.61 717.588 2908.07 694.77 2894.17 667.041C2880.27 638.736 2873.03 605.519 2872.46 567.393H2981.05Z" fill="white" fill-opacity="0.4"/>
<path d="M2542.73 154.935H2641.77V773.622H2542.73V154.935Z" fill="white" fill-opacity="0.4"/>
<path d="M2199.95 325.637H2292.91V412.288H2294.64C2297.54 400.157 2303.04 388.315 2311.15 376.761C2319.84 365.208 2329.97 354.81 2341.56 345.567C2353.72 335.747 2367.04 327.948 2381.52 322.171C2396 316.395 2410.77 313.506 2425.83 313.506C2437.41 313.506 2445.23 313.795 2449.28 314.373C2453.92 314.95 2458.55 315.528 2463.18 316.106V411.422C2456.23 410.266 2448.99 409.4 2441.46 408.822C2434.51 407.667 2427.56 407.089 2420.61 407.089C2403.82 407.089 2387.89 410.555 2372.83 417.487C2358.35 423.842 2345.61 433.662 2334.61 446.948C2323.6 459.657 2314.91 475.543 2308.54 494.606C2302.17 513.67 2298.99 535.621 2298.99 560.461V773.622H2199.95V325.637Z" fill="white" fill-opacity="0.4"/>
<path d="M1830.71 325.637H1905.43V191.329H2004.47V325.637H2093.95V399.291H2004.47V638.447C2004.47 648.845 2004.76 657.799 2005.34 665.308C2006.49 672.818 2008.52 679.173 2011.42 684.372C2014.89 689.571 2019.82 693.614 2026.19 696.503C2032.56 698.813 2041.25 699.969 2052.25 699.969C2059.2 699.969 2066.15 699.969 2073.1 699.969C2080.05 699.391 2087 698.236 2093.95 696.503V772.755C2082.95 773.911 2072.23 775.066 2061.81 776.221C2051.38 777.377 2040.67 777.954 2029.66 777.954C2003.6 777.954 1982.46 775.644 1966.24 771.022C1950.6 765.823 1938.15 758.602 1928.88 749.36C1920.2 739.539 1914.12 727.408 1910.64 712.966C1907.74 698.525 1906.01 682.061 1905.43 663.575V399.291H1830.71V325.637Z" fill="white" fill-opacity="0.4"/>
<path d="M1646.81 351.633C1642.18 333.725 1635.81 317.261 1627.7 302.242C1619.59 287.222 1609.17 274.225 1596.42 263.249C1583.68 252.273 1568.62 243.897 1551.25 238.12C1534.45 231.766 1514.76 228.589 1492.17 228.589C1459.16 228.589 1430.49 235.232 1406.16 248.518C1382.42 261.805 1363.02 279.712 1347.96 302.242C1332.9 324.193 1321.6 349.322 1314.08 377.628C1307.12 405.934 1303.65 434.817 1303.65 464.279C1303.65 493.74 1307.12 522.623 1314.08 550.929C1321.6 579.235 1332.9 604.653 1347.96 627.182C1363.02 649.134 1382.42 666.753 1406.16 680.039C1430.49 693.326 1459.16 699.969 1492.17 699.969C1516.5 699.969 1537.93 695.925 1556.46 687.838C1575 679.172 1590.92 667.619 1604.24 653.177C1617.56 638.158 1627.99 620.828 1635.52 601.187C1643.05 581.546 1647.97 560.461 1650.29 537.932H1756.28C1753.96 574.903 1745.85 608.697 1731.95 639.313C1718.63 669.93 1700.39 696.503 1677.22 719.032C1654.05 740.983 1626.83 758.025 1595.56 770.156C1564.28 782.287 1529.82 788.353 1492.17 788.353C1445.84 788.353 1404.14 779.976 1367.07 763.224C1330.58 745.894 1299.6 722.498 1274.11 693.037C1248.63 663.575 1228.94 629.204 1215.04 589.922C1201.71 550.641 1195.05 508.759 1195.05 464.279C1195.05 420.376 1201.71 378.783 1215.04 339.501C1228.94 300.22 1248.63 265.848 1274.11 236.387C1299.6 206.926 1330.58 183.53 1367.07 166.2C1404.14 148.87 1445.84 140.205 1492.17 140.205C1526.92 140.205 1559.65 145.115 1590.34 154.935C1621.04 164.178 1647.97 178.042 1671.14 196.528C1694.89 214.436 1714 236.387 1728.48 262.382C1742.96 288.378 1751.93 318.128 1755.41 351.633H1646.81Z" fill="white" fill-opacity="0.4"/>
<path d="M616.083 171.88H246.078C200.378 171.88 163.332 210.185 163.332 257.437V640.014C163.332 687.266 200.378 725.572 246.078 725.572H616.083C661.782 725.572 698.829 687.266 698.829 640.014V257.437C698.829 210.185 661.782 171.88 616.083 171.88Z" fill="black"/>
<path d="M431.073 725.557C578.943 725.557 698.815 601.612 698.815 448.718C698.815 295.825 578.943 171.88 431.073 171.88C283.204 171.88 163.332 295.825 163.332 448.718C163.332 601.612 283.204 725.557 431.073 725.557Z" fill="white" fill-opacity="0.4"/>
</svg>
