<svg xmlns="http://www.w3.org/2000/svg" width="200" height="33" fill="none"><path fill="#EAEAEA" d="M32.182 16.57c0 8.959-7.11 16.22-15.882 16.22S.418 25.53.418 16.57 7.528.35 16.3.35s15.882 7.262 15.882 16.22M191.501 28.727q-1.982 0-3.548-.627a7.9 7.9 0 0 1-2.621-1.785q-1.054-1.128-1.63-2.694-.543-1.566-.543-3.445 0-1.848.543-3.414.576-1.566 1.63-2.693a7.6 7.6 0 0 1 2.621-1.754q1.566-.657 3.548-.658 1.982 0 3.516.658 1.566.627 2.621 1.754a7.2 7.2 0 0 1 1.63 2.693q.576 1.566.576 3.414 0 1.88-.576 3.445a7.2 7.2 0 0 1-1.63 2.694q-1.055 1.128-2.621 1.785-1.534.627-3.516.627m0-2.82q1.215 0 2.11-.5a4.4 4.4 0 0 0 1.47-1.316 5.4 5.4 0 0 0 .831-1.816 7.67 7.67 0 0 0 0-4.165 5.1 5.1 0 0 0-.831-1.817 4.4 4.4 0 0 0-1.47-1.316q-.895-.5-2.11-.5t-2.109.5a4.4 4.4 0 0 0-1.471 1.316 5.6 5.6 0 0 0-.863 1.816 8.6 8.6 0 0 0 0 4.166 6 6 0 0 0 .863 1.816q.576.815 1.471 1.316.895.5 2.109.5M176.312 5.926h3.644v3.382h-3.644zm0 6.17h3.644v16.192h-3.644zM172.242 28.288h-3.452v-2.192h-.064q-.735 1.41-2.142 2.035a7.55 7.55 0 0 1-2.972.596q-1.95 0-3.42-.658a7 7 0 0 1-2.398-1.848q-.958-1.158-1.438-2.725a11.8 11.8 0 0 1-.479-3.414q0-2.191.607-3.79.607-1.596 1.598-2.63a6.25 6.25 0 0 1 2.301-1.504 7.4 7.4 0 0 1 2.653-.5q.768 0 1.567.156.799.125 1.534.438.735.314 1.342.815a4.1 4.1 0 0 1 1.055 1.127h.064V5.926h3.644zm-12.722-7.924q0 1.034.256 2.036.288 1.002.831 1.785.576.783 1.439 1.253t2.045.47q1.215 0 2.078-.501a4.1 4.1 0 0 0 1.438-1.316 5.4 5.4 0 0 0 .831-1.816 7.8 7.8 0 0 0 .288-2.099q0-2.693-1.247-4.197-1.213-1.503-3.324-1.503-1.278 0-2.173.532a4.4 4.4 0 0 0-1.439 1.347 5.8 5.8 0 0 0-.799 1.88 10 10 0 0 0-.224 2.13M152.833 28.288h-3.58v-2.255h-.064q-.671 1.221-2.014 1.973-1.31.72-2.684.72-3.261 0-4.731-1.565-1.438-1.598-1.438-4.792V12.096h3.643v9.928q0 2.13.831 3.007.832.877 2.334.877 1.15 0 1.918-.345.767-.344 1.246-.908.48-.596.671-1.41.225-.813.224-1.753v-9.396h3.644zM126.015 12.096h2.749V7.24h3.644v4.855h3.292v2.662h-3.292v8.644q0 .564.032.971.064.407.224.69.192.28.543.438.352.125.959.125h.767q.384-.031.767-.126v2.757q-.608.062-1.182.125-.576.063-1.183.063-1.439 0-2.333-.251-.864-.282-1.375-.783a3 3 0 0 1-.671-1.315 11 11 0 0 1-.192-1.786v-9.552h-2.749zM110.083 20.834q0 1.284.448 2.192a4.1 4.1 0 0 0 1.247 1.504q.799.563 1.821.845 1.056.25 2.27.25 1.31 0 2.237-.281.927-.313 1.503-.783a2.8 2.8 0 0 0 .831-1.065 3.3 3.3 0 0 0 .255-1.253q0-1.284-.607-1.879-.575-.627-1.278-.877a25 25 0 0 0-2.845-.814 445 445 0 0 1-3.964-1.034q-1.47-.376-2.461-.97-.959-.627-1.534-1.379a5 5 0 0 1-.831-1.597 6.7 6.7 0 0 1-.224-1.723q0-1.69.703-2.912a6.4 6.4 0 0 1 1.918-2.067 8.2 8.2 0 0 1 2.685-1.19 11.6 11.6 0 0 1 3.037-.408q1.79 0 3.356.47 1.597.439 2.781 1.347a6.6 6.6 0 0 1 1.917 2.255q.704 1.315.704 3.07h-3.996q-.16-2.162-1.502-3.039-1.343-.908-3.42-.908-.704 0-1.439.157-.735.125-1.342.47a2.9 2.9 0 0 0-1.023.876q-.384.564-.384 1.41 0 1.19.736 1.879.767.657 1.981 1.002.129.031.991.282a152 152 0 0 1 4.092 1.065q1.055.25 1.502.376 1.119.345 1.95.94a5.7 5.7 0 0 1 1.374 1.377q.576.752.831 1.629.288.878.288 1.754 0 1.88-.799 3.226a6.5 6.5 0 0 1-2.046 2.16q-1.278.847-2.909 1.222a13.7 13.7 0 0 1-3.324.407q-1.95 0-3.676-.47-1.725-.47-3.004-1.44a7.1 7.1 0 0 1-2.046-2.474q-.767-1.535-.799-3.602zM93.957 5.926H97.6v22.362h-3.644zM81.345 12.096h3.42v3.132h.064q.16-.658.608-1.284.48-.627 1.118-1.128a5.7 5.7 0 0 1 1.47-.846 4.4 4.4 0 0 1 1.63-.313q.64 0 .864.032l.511.062v3.445a9 9 0 0 0-.799-.094 5 5 0 0 0-.767-.062q-.927 0-1.758.376A3.8 3.8 0 0 0 86.3 16.48q-.608.69-.96 1.723-.35 1.035-.35 2.38v7.705h-3.645zM67.76 12.096h2.75V7.24h3.643v4.855h3.292v2.662h-3.292v8.644q0 .564.032.971.064.407.224.69.192.28.543.438.352.125.96.125h.766a5 5 0 0 0 .767-.126v2.757q-.607.062-1.182.125a11 11 0 0 1-1.183.063q-1.439 0-2.333-.251-.864-.282-1.375-.783a3 3 0 0 1-.67-1.315 10.7 10.7 0 0 1-.193-1.786v-9.552H67.76zM60.994 13.035a7.8 7.8 0 0 0-.703-1.785 5 5 0 0 0-1.15-1.41 4.9 4.9 0 0 0-1.663-.907q-.927-.345-2.173-.345-1.823 0-3.164.72a6.1 6.1 0 0 0-2.142 1.942 8.7 8.7 0 0 0-1.247 2.725 12.9 12.9 0 0 0-.383 3.132q0 1.598.383 3.132A9.1 9.1 0 0 0 50 22.995a6.2 6.2 0 0 0 2.142 1.91q1.342.72 3.164.72 1.342 0 2.365-.438a5.6 5.6 0 0 0 1.758-1.252q.735-.815 1.15-1.88.417-1.065.544-2.286h3.9q-.128 2.004-.895 3.665a9 9 0 0 1-2.014 2.88 9.1 9.1 0 0 1-3.004 1.849q-1.727.657-3.804.657-2.558 0-4.603-.908a10.3 10.3 0 0 1-3.42-2.537q-1.407-1.597-2.173-3.727-.735-2.13-.736-4.541 0-2.38.736-4.51.766-2.13 2.173-3.727a10.3 10.3 0 0 1 3.42-2.537q2.046-.94 4.603-.94 1.917 0 3.612.533 1.695.501 2.972 1.503A7.6 7.6 0 0 1 64 9.81q.8 1.41.99 3.226z"/><path fill="#141414" d="M23.072 6.538H9.459c-1.682 0-3.045 1.385-3.045 3.093v13.828c0 1.708 1.363 3.092 3.045 3.092h13.613c1.681 0 3.044-1.384 3.044-3.092V9.63c0-1.708-1.363-3.093-3.044-3.093"/><path fill="#EAEAEA" d="M16.265 26.55c5.44 0 9.85-4.48 9.85-10.006s-4.41-10.006-9.85-10.006-9.85 4.48-9.85 10.006c0 5.527 4.41 10.007 9.85 10.007"/></svg>